<svg width="20" height="20" viewBox="0 0 20 20" fill="none" xmlns="http://www.w3.org/2000/svg">
<path d="M1.95914 14.4571C1.7621 14.4571 1.56544 14.382 1.41497 14.2316C1.1144 13.931 1.1144 13.4438 1.41497 13.1432L13.443 1.11528C13.7432 0.814716 14.2308 0.814716 14.5313 1.11528C14.8319 1.41584 14.8319 1.90306 14.5313 2.20362L2.50331 14.2316C2.35322 14.3817 2.15618 14.4571 1.95914 14.4571Z" fill="#606060"/>
<path d="M0.770733 20C0.71724 20 0.662976 19.9942 0.608713 19.9827C0.193078 19.8934 -0.0716968 19.4843 0.0175877 19.0687L1.20676 13.5258C1.29605 13.1101 1.70707 12.8461 2.12078 12.9346C2.53641 13.0239 2.80119 13.433 2.7119 13.8486L1.52272 19.3916C1.44537 19.7529 1.12595 20 0.770733 20Z" fill="#606060"/>
<path d="M6.31292 18.8108C6.11587 18.8108 5.91922 18.7358 5.76874 18.5853C5.46818 18.2847 5.46818 17.7975 5.76874 17.497L17.7968 5.46942C18.0969 5.16885 18.5845 5.16885 18.8851 5.46942C19.1857 5.76998 19.1857 6.25719 18.8851 6.55776L6.85747 18.5853C6.707 18.7358 6.50996 18.8108 6.31292 18.8108Z" fill="#606060"/>
<path d="M0.769194 20C0.413981 20 0.0949426 19.7529 0.0172035 19.3916C-0.0716962 18.9759 0.192694 18.5668 0.608328 18.4776L6.15128 17.2884C6.5673 17.2003 6.97639 17.4643 7.06529 17.8795C7.15419 18.2951 6.8898 18.7042 6.47417 18.7935L0.931215 19.9827C0.876952 19.9946 0.822688 20 0.769194 20Z" fill="#606060"/>
<path d="M16.1638 8.95996C15.9668 8.95996 15.7698 8.88491 15.6197 8.73444L11.2659 4.38069C10.9653 4.08013 10.9653 3.59291 11.2659 3.29235C11.5661 2.99179 12.0541 2.99179 12.3542 3.29235L16.708 7.6461C17.0086 7.94666 17.0086 8.43388 16.708 8.73444C16.5579 8.88491 16.3609 8.95996 16.1638 8.95996Z" fill="#606060"/>
<path d="M18.3409 6.78328C18.1439 6.78328 17.9468 6.70823 17.7964 6.55776C17.4958 6.25719 17.4958 5.76998 17.7964 5.46903C18.2247 5.0407 18.4606 4.46074 18.4606 3.83652C18.4606 3.2123 18.2247 2.63234 17.7964 2.20401C17.3676 1.77529 16.7877 1.53938 16.1635 1.53938C15.5392 1.53938 14.9593 1.77529 14.5309 2.20401C14.2308 2.50457 13.7435 2.50496 13.4422 2.20401C13.1416 1.90344 13.1416 1.41623 13.4422 1.11528C14.1611 0.396005 15.1275 0 16.1635 0C17.1991 0 18.1658 0.396005 18.8847 1.11528C19.604 1.83417 20 2.80052 20 3.83652C20 4.87252 19.604 5.83887 18.8847 6.55776C18.735 6.70785 18.538 6.78328 18.3409 6.78328Z" fill="#606060"/>
</svg>
