<svg width="20" height="20" viewBox="0 0 20 20" fill="none" xmlns="http://www.w3.org/2000/svg">
<path d="M10 0C4.48086 0 0 4.48086 0 10C0 15.5191 4.48086 20 10 20C15.5191 20 20 15.5191 20 10C20 4.48086 15.5191 0 10 0ZM10 0.703125C15.1311 0.703125 19.2969 4.86891 19.2969 10C19.2969 15.1311 15.1311 19.2969 10 19.2969C4.86891 19.2969 0.703125 15.1311 0.703125 10C0.703125 4.86891 4.86891 0.703125 10 0.703125ZM11.8359 10.1349C11.8359 9.12098 11.014 8.29906 10.0001 8.29906H10C9.51309 8.29906 9.04609 8.49246 8.7018 8.8368C8.3575 9.18109 8.16406 9.64805 8.16406 10.135V14.0436C8.16406 14.5305 8.3575 14.9975 8.7018 15.3418C9.04609 15.6861 9.51309 15.8795 10 15.8795H10.0001C11.014 15.8795 11.8359 15.0575 11.8359 14.0436V10.1349ZM11.1328 10.1349C11.1328 9.5093 10.6257 9.00219 10.0001 9.00219H10C9.69957 9.00219 9.41141 9.12152 9.19898 9.33398C8.98652 9.54641 8.86719 9.83453 8.86719 10.135V14.0436C8.86719 14.344 8.98652 14.6321 9.19898 14.8446C9.41141 15.057 9.69957 15.1764 10 15.1764H10.0001C10.6257 15.1764 11.1328 14.6692 11.1328 14.0436V10.1349ZM10 4.12051C8.98672 4.12051 8.16406 4.94316 8.16406 5.95645C8.16406 6.96973 8.98672 7.79238 10 7.79238C11.0133 7.79238 11.8359 6.96973 11.8359 5.95645C11.8359 4.94316 11.0133 4.12051 10 4.12051ZM10 4.82363C10.6252 4.82363 11.1328 5.33125 11.1328 5.95645C11.1328 6.58168 10.6252 7.08926 10 7.08926C9.37477 7.08926 8.86719 6.58168 8.86719 5.95645C8.86719 5.33125 9.37477 4.82363 10 4.82363Z" fill="#606060"/>
</svg>
