<svg width="41" height="41" viewBox="0 0 41 41" fill="none" xmlns="http://www.w3.org/2000/svg">
<path fill-rule="evenodd" clip-rule="evenodd" d="M20.5 0C31.8219 0 41 9.17814 41 20.5C41 31.8219 31.8219 41 20.5 41C9.17814 41 0 31.8219 0 20.5C0 9.17814 9.17814 0 20.5 0ZM20.5 1.95238C10.2559 1.95238 1.95238 10.2559 1.95238 20.5C1.95238 30.7441 10.2559 39.0476 20.5 39.0476C30.7441 39.0476 39.0476 30.7441 39.0476 20.5C39.0476 10.2559 30.7441 1.95238 20.5 1.95238ZM23.4286 11.7143C26.1248 11.7143 28.3095 13.899 28.3095 16.5952C28.3095 19.2915 26.1248 21.4762 23.4286 21.4762H17.5714V28.3095C17.5714 28.7898 17.2259 29.1881 16.771 29.2701L16.5952 29.2857C16.0564 29.2857 15.619 28.8484 15.619 28.3095V12.6905C15.619 12.1516 16.0564 11.7143 16.5952 11.7143H23.4286ZM23.4286 13.6667H17.5714V19.5238H23.4286C25.0451 19.5238 26.3571 18.2118 26.3571 16.5952C26.3571 14.9787 25.0451 13.6667 23.4286 13.6667Z" fill="#0575BC"/>
</svg>
