<svg width="20" height="15" viewBox="0 0 20 15" fill="none" xmlns="http://www.w3.org/2000/svg">
<path d="M16.6636 4.96994C15.7393 1.45204 12.0049 -0.683896 8.32254 0.199181C5.44488 0.889306 3.35538 3.26536 3.14009 6.09231C1.09684 6.41422 -0.286409 8.25758 0.0505465 10.2096C0.350084 11.945 1.92405 13.2158 3.76503 13.2089H6.88969V12.0148H3.76503C2.38447 12.0148 1.2653 10.9456 1.2653 9.62671C1.2653 8.3078 2.38447 7.2386 3.76503 7.2386C4.11018 7.2386 4.38996 6.97132 4.38996 6.64158C4.38683 3.67402 6.90246 1.26592 10.0087 1.26297C12.6976 1.26039 15.0124 3.07647 15.5325 5.59678C15.5839 5.84843 15.7976 6.04067 16.0637 6.0744C17.7722 6.30683 18.9599 7.81839 18.7166 9.45055C18.4982 10.9162 17.1883 12.0074 15.6387 12.0148H13.139V13.2089H15.6387C18.0547 13.2019 20.0073 11.3251 20 9.01703C19.9939 7.09573 18.6173 5.42588 16.6636 4.96994Z" fill="white"/>
<path d="M9.57062 7.4118L7.07089 9.7999L7.95205 10.6417L9.38939 9.27452V15H10.6393V9.27452L12.0703 10.6417L12.9515 9.7999L10.4518 7.4118C10.208 7.1803 9.81438 7.1803 9.57062 7.4118Z" fill="white"/>
</svg>
